# xmcd
#
# Track frame offsets: 
#        150
#        19727
#        32802
#        48530
#        74051
#        90253
#        105456
#        122966
#        138856
#        155423
#        172426
#        185356
#        203775
#        218477
#
# Disc length: 3041 seconds
#
# Revision: 0
# Processed by: cddbd v1.5.2PL0 Copyright (c) Steve Scherf et al.
# Submitted via: ExactAudioCopy v0.99pb5
#
DISCID=c60bdf0e
DTITLE=Alien - Milky Rain
DYEAR=2011
DGENRE=
TTITLE0=Milk
TTITLE1=Slow
TTITLE2=Daddy
TTITLE3=Gently
TTITLE4=Anodyne
TTITLE5=Eternity
TTITLE6=Infinito
TTITLE7=Real Dream
TTITLE8=My Salvation
TTITLE9=Glancing
TTITLE10=Things
TTITLE11=Bye Bye
TTITLE12=Music in Mud
TTITLE13=Inima (Bonus Track)
EXTD=
EXTT0=
EXTT1=
EXTT2=
EXTT3=
EXTT4=
EXTT5=
EXTT6=
EXTT7=
EXTT8=
EXTT9=
EXTT10=
EXTT11=
EXTT12=
EXTT13=
PLAYORDER=
